HIERARCHY
ROOT Hips
{
	OFFSET 0.00000 0.00000 0.00000
	CHANNELS 6 Xposition Yposition Zposition Zrotation Yrotation Xrotation 
	JOINT LHipJoint
	{
		OFFSET 0 0 0
		CHANNELS 3 Zrotation Yrotation Xrotation
		JOINT LeftHip
		{
			OFFSET 1.48831 -1.59570 0.95625
			CHANNELS 3 Zrotation Yrotation Xrotation
			JOINT LeftKnee
			{
				OFFSET 2.20856 -6.06797 0.00000
				CHANNELS 3 Zrotation Yrotation Xrotation
				JOINT LeftAnkle
				{
					OFFSET 2.62924 -7.22379 0.00000
					CHANNELS 3 Zrotation Yrotation Xrotation
					JOINT LeftToe
					{
						OFFSET 0.16802 -0.46163 2.41673
						CHANNELS 3 Zrotation Yrotation Xrotation
						End Site
						{
							OFFSET 0.00000 -0.00000 1.23760
						}
					}
				}
			}
		}
	}
	JOINT RHipJoint
	{
		OFFSET 0 0 0
		CHANNELS 3 Zrotation Yrotation Xrotation
		JOINT RightHip
		{
			OFFSET -1.56796 -1.59570 0.95625
			CHANNELS 3 Zrotation Yrotation Xrotation
			JOINT RightKnee
			{
				OFFSET -2.29239 -6.29829 0.00000
				CHANNELS 3 Zrotation Yrotation Xrotation
				JOINT RightAnkle
				{
					OFFSET -2.66963 -7.33475 0.00000
					CHANNELS 3 Zrotation Yrotation Xrotation
					JOINT RightToe
					{
						OFFSET -0.18185 -0.49964 2.34359
						CHANNELS 3 Zrotation Yrotation Xrotation
						End Site
						{
							OFFSET -0.00000 -0.00000 1.20477
						}
					}
				}
			}
		}
	}
	JOINT lowerback
	{
		OFFSET 0 0 0
		CHANNELS 3 Zrotation Yrotation Xrotation
		JOINT Chest
		{
			OFFSET 0.03505 2.15832 -0.34324
			CHANNELS 3 Zrotation Yrotation Xrotation
			JOINT Chest2
			{
				OFFSET -0.01089 2.17963 0.04689
				CHANNELS 3 Zrotation Yrotation Xrotation
				JOINT lowerneck
				{
					OFFSET 0 0 0
					CHANNELS 3 Zrotation Yrotation Xrotation
					JOINT Neck
					{
						OFFSET 0.04686 1.69404 0.22159
						CHANNELS 3 Zrotation Yrotation Xrotation
						JOINT Head
						{
							OFFSET 0.00265 1.69305 -0.01513
							CHANNELS 3 Zrotation Yrotation Xrotation
							End Site
							{
								OFFSET -0.00415 1.80215 -0.03034
							}
						}
					}
				}
				JOINT LeftCollar
				{
					OFFSET 0 0 0
					CHANNELS 3 Zrotation Yrotation Xrotation
					JOINT LeftShoulder
					{
						OFFSET 3.67184 1.11724 -0.19002
CHANNELS 3 Zrotation Xrotation Yrotation
						JOINT LeftElbow
						{
OFFSET 0 -5.177140 -0.000000
CHANNELS 3 Zrotation Xrotation Yrotation
							JOINT LeftWrist
							{
OFFSET 0 -3.436790 -0.000000
CHANNELS 3 Zrotation Xrotation Yrotation
								JOINT lhand
								{
									OFFSET 0 0 0
CHANNELS 3 Zrotation Xrotation Yrotation
									JOINT LFingers
									{
OFFSET 0 -0.573120 -0.000000
CHANNELS 3 Zrotation Xrotation Yrotation
										End Site
										{
OFFSET 0 -0.462060 -0.000000
										}
									}
								}
								JOINT LThumb
								{
OFFSET 0 0.000000 0.000000
CHANNELS 3 Zrotation Xrotation Yrotation
									End Site
									{
OFFSET 0 -0.469120 0.469120
									}
								}
							}
						}
					}
				}
				JOINT RightCollar
				{
					OFFSET 0 0 0
					CHANNELS 3 Zrotation Yrotation Xrotation
					JOINT RightShoulder
					{
						OFFSET -3.59596 0.95831 -0.26050
CHANNELS 3 Zrotation Xrotation Yrotation
						JOINT RightElbow
						{
OFFSET 0 -5.239080 -0.000000
CHANNELS 3 Zrotation Xrotation Yrotation
							JOINT RightWrist
							{
OFFSET 0 -3.464850 -0.000000
CHANNELS 3 Zrotation Xrotation Yrotation
								JOINT rhand
								{
									OFFSET 0 0 0
CHANNELS 3 Zrotation Xrotation Yrotation
									JOINT RFingers
									{
OFFSET 0 -0.608750 -0.000000
CHANNELS 3 Zrotation Xrotation Yrotation
										End Site
										{
OFFSET 0 -0.490790 -0.000000
										}
									}
								}
								JOINT RThumb
								{
OFFSET 0 0.000000 0.000000
CHANNELS 3 Zrotation Xrotation Yrotation
									End Site
									{
OFFSET 0 -0.498290 0.498290
									}
								}
							}
						}
					}
				}
			}
		}
	}
}
MOTION
Frames: 10
Frame Time: 0.008333333333333333
49.378600 15.976100 17.980300 -176.084000 -43.370600 177.275000 0.000000 0.000000 0.000000 -15.375600 7.768600 -8.836500 2.037100 8.943000 25.617100 1.282400 -3.728700 -20.502300 0.040100 -1.292400 -3.553800 0.000000 0.000000 0.000000 23.706200 4.382700 -9.233800 -3.533800 -11.512700 34.029200 -2.346000 -4.284300 -30.703900 -0.078100 -1.802300 4.959700 2.500200 -1.089600 -0.334800 0.318800 -1.566400 2.859400 -1.119900 -0.744300 3.068700 2.753900 0.173100 -4.773700 0.458000 0.029900 2.052800 -0.320000 0.041200 1.439200 0.000000 0.000000 0.000000 4.344400 2.506200 -27.227600 16.857000 -26.668800 4.022900 13.602000 -20.815500 -6.710000 0.000000 0.000000 0.000000 -7.125000 0.000000 0.000000 -11.093100 36.681300 -2.304600 0.000000 0.000000 0.000000 -2.914500 1.546900 27.868300 -16.193600 -25.782400 -3.729800 -19.379300 2.320500 7.119000 0.000000 0.000000 0.000000 7.125000 0.000000 -0.000000 6.311100 37.454600 1.177700
49.375067 15.976364 17.975182 -176.095564 -43.364644 177.358745 0.000000 0.000000 0.000000 -15.384446 7.776572 -8.890583 2.035223 8.939046 25.604746 1.279459 -3.764383 -20.472376 0.041464 -1.313977 -3.613067 0.000000 0.000000 0.000000 23.699046 4.431798 -9.282047 -3.536797 -11.517118 34.044395 -2.362272 -4.187061 -30.757493 -0.085249 -1.883572 5.183998 2.515039 -1.081954 -0.530759 0.305446 -1.561264 2.868480 -1.146277 -0.738969 3.188173 2.614791 0.216077 -4.869080 0.616370 0.086357 2.051454 -0.245884 0.071103 1.455400 0.000000 0.000000 0.000000 4.486811 2.464132 -27.782270 16.451488 -26.128880 3.842694 13.706461 -21.199582 -6.755630 0.000000 0.000000 0.000000 -7.125000 0.000000 0.000000 -11.014206 36.733427 -2.273385 0.000000 0.000000 0.000000 -2.848607 1.543369 27.785589 -16.128394 -25.694440 -3.701484 -19.513623 2.351032 7.022282 0.000000 0.000000 0.000000 7.125000 0.000000 0.000000 6.185493 37.361390 1.168149
49.371174 15.977213 17.968918 -176.118539 -43.378471 177.469439 0.000000 0.000000 0.000000 -15.407073 7.771148 -8.967297 2.034100 8.936728 25.597485 1.275146 -3.798782 -20.431056 0.040220 -1.294126 -3.558512 0.000000 0.000000 0.000000 23.683071 4.465606 -9.358982 -3.540682 -11.522723 34.063882 -2.368503 -4.183277 -30.793449 -0.083831 -1.868053 5.141139 2.504138 -1.095726 -0.759187 0.312631 -1.585349 2.870208 -1.138813 -0.748897 3.318467 2.536268 0.225774 -4.903601 0.604170 0.104141 2.052128 -0.236085 0.079344 1.461656 0.000000 0.000000 0.000000 4.743815 2.366928 -28.880126 15.885667 -25.365310 3.596855 14.023284 -22.213433 -6.476400 0.000000 0.000000 0.000000 -7.125000 0.000000 0.000000 -10.704173 36.469895 -2.277546 0.000000 0.000000 0.000000 -2.820854 1.557029 27.732865 -16.067663 -25.612285 -3.675156 -19.346338 2.439820 7.033912 0.000000 0.000000 0.000000 7.125000 0.000000 0.000000 6.328233 37.363065 1.195155
49.369131 15.978769 17.967400 -176.153232 -43.328467 177.601312 0.000000 0.000000 0.000000 -15.454856 7.717459 -9.050095 2.033046 8.934692 25.591099 1.272654 -3.779498 -20.413769 0.032169 -1.157487 -3.182201 0.000000 0.000000 0.000000 23.647691 4.533511 -9.471327 -3.545862 -11.530200 34.089524 -2.365438 -4.164683 -30.766630 -0.084454 -1.874162 5.158079 2.515793 -1.077176 -0.927506 0.315308 -1.564514 2.858846 -1.145509 -0.736561 3.402380 2.540394 0.209868 -4.937193 0.502673 0.086114 2.040545 -0.268840 0.068692 1.463938 0.000000 0.000000 0.000000 4.704744 2.423810 -28.891311 15.585621 -24.955603 3.469273 14.006351 -22.204795 -6.532434 0.000000 0.000000 0.000000 -7.125000 0.000000 0.000000 -10.727518 36.525603 -2.267900 0.000000 0.000000 0.000000 -2.799153 1.587055 27.657521 -16.016914 -25.543568 -3.653307 -19.366588 2.484208 6.961443 0.000000 0.000000 0.000000 7.125000 0.000000 0.000000 6.302004 37.288289 1.201731
49.367174 15.979261 17.966236 -176.191643 -43.277089 177.674150 0.000000 0.000000 0.000000 -15.497011 7.703478 -9.062475 2.028484 8.925156 25.561642 1.270444 -3.762731 -20.397507 0.027561 -1.071452 -2.945417 0.000000 0.000000 0.000000 23.610379 4.563808 -9.523192 -3.549600 -11.535600 34.108300 -2.363364 -4.137799 -30.741711 -0.083487 -1.863564 5.128686 2.536025 -1.052938 -1.043202 0.308305 -1.536169 2.874188 -1.165823 -0.720428 3.484162 2.575068 0.186964 -4.939646 0.404559 0.057569 1.999514 -0.305955 0.052515 1.451264 0.000000 0.000000 0.000000 4.600766 2.499538 -28.619092 15.347951 -24.628655 3.369619 13.937739 -21.965765 -6.624744 0.000000 0.000000 0.000000 -7.125000 0.000000 0.000000 -10.799907 36.614896 -2.259679 0.000000 0.000000 0.000000 -2.762201 1.623019 27.595772 -15.982811 -25.497297 -3.638535 -19.444463 2.489670 6.916993 0.000000 0.000000 0.000000 7.125000 0.000000 0.000000 6.230743 37.246426 1.194425
49.366679 15.975836 17.961095 -176.221643 -43.281526 177.489992 0.000000 0.000000 0.000000 -15.476243 7.842985 -8.823394 2.020469 8.908596 25.509887 1.271221 -3.874340 -20.387179 0.022969 -0.977557 -2.687091 0.000000 0.000000 0.000000 23.613036 4.470678 -9.289653 -3.547700 -11.532879 34.098859 -2.370493 -4.126437 -30.779697 -0.082782 -1.855704 5.107064 2.524608 -1.023375 -0.929710 0.280272 -1.497121 2.963186 -1.185510 -0.701250 3.513237 2.635875 0.165373 -4.948519 0.414831 0.023975 1.961411 -0.313871 0.035758 1.440407 0.000000 0.000000 0.000000 4.569395 2.606072 -28.471712 15.166564 -24.377548 3.294379 14.051758 -21.809706 -6.530966 0.000000 0.000000 0.000000 -7.125000 0.000000 0.000000 -10.689514 36.526709 -2.259337 0.000000 0.000000 0.000000 -2.656437 1.649037 27.406021 -15.916944 -25.407922 -3.610290 -19.373935 2.600340 6.924536 0.000000 0.000000 0.000000 7.125000 0.000000 0.000000 6.291294 37.249976 1.205556
49.365915 15.974500 17.959785 -176.256311 -43.255336 177.456464 0.000000 0.000000 0.000000 -15.495164 7.883100 -8.735915 2.014300 8.895730 25.469736 1.270423 -3.925625 -20.373306 0.016400 -0.827200 -2.273502 0.000000 0.000000 0.000000 23.589190 4.457563 -9.228594 -3.549931 -11.536154 34.110171 -2.376246 -4.074627 -30.790492 -0.085931 -1.890995 5.204632 2.542493 -0.997622 -0.931050 0.259638 -1.464560 3.004302 -1.216040 -0.683776 3.557019 2.669924 0.149515 -4.949409 0.429377 -0.000131 1.930184 -0.315615 0.023684 1.430277 0.000000 0.000000 0.000000 4.536558 2.723899 -28.391225 15.035306 -24.195218 3.240404 14.031486 -21.735041 -6.523906 0.000000 0.000000 0.000000 -7.125000 0.000000 0.000000 -10.705214 36.518390 -2.264938 0.000000 0.000000 0.000000 -2.584405 1.648022 27.274364 -15.841541 -25.305270 -3.577929 -19.251410 2.619308 6.792339 0.000000 0.000000 0.000000 7.125000 0.000000 0.000000 6.378188 37.103538 1.245348
49.367341 15.975446 17.960397 -176.296875 -43.253222 177.516287 0.000000 0.000000 0.000000 -15.529500 7.891809 -8.767681 2.010313 8.887476 25.444083 1.263879 -3.957690 -20.313765 0.014508 -0.777957 -2.137968 0.000000 0.000000 0.000000 23.554054 4.469819 -9.277707 -3.552792 -11.540190 34.124316 -2.375356 -4.070820 -30.783356 -0.086605 -1.897655 5.223002 2.537589 -0.982379 -0.986737 0.254154 -1.445686 3.013851 -1.219615 -0.673718 3.599059 2.670699 0.147271 -4.983174 0.470751 -0.006162 1.938257 -0.303119 0.021415 1.438624 0.000000 0.000000 0.000000 4.495937 2.807876 -28.359415 14.919858 -24.034309 3.193205 13.868516 -21.636103 -6.777107 0.000000 0.000000 0.000000 -7.125000 0.000000 0.000000 -10.883095 36.764686 -2.237031 0.000000 0.000000 0.000000 -2.543276 1.646599 27.178551 -15.786435 -25.230185 -3.554458 -19.358955 2.698950 6.777574 0.000000 0.000000 0.000000 7.125000 0.000000 0.000000 6.285627 37.094527 1.228533
49.369351 15.976339 17.961464 -176.334285 -43.273114 177.572800 0.000000 0.000000 0.000000 -15.562475 7.889083 -8.803397 2.006120 8.878827 25.416882 1.255781 -4.008497 -20.238582 0.011020 -0.676718 -1.859694 0.000000 0.000000 0.000000 23.521615 4.483288 -9.324417 -3.554990 -11.543429 34.135324 -2.374851 -4.077467 -30.783187 -0.086603 -1.897944 5.223775 2.539310 -0.968964 -1.029055 0.245667 -1.428533 3.015544 -1.229508 -0.664509 3.625231 2.705341 0.111488 -4.969622 0.466158 -0.055551 1.931132 -0.311661 -0.003177 1.433549 0.000000 0.000000 0.000000 4.455512 2.917211 -28.320650 14.872410 -23.968112 3.173902 13.811075 -21.558187 -6.778965 0.000000 0.000000 0.000000 -7.125000 0.000000 0.000000 -10.931285 36.763242 -2.247636 0.000000 0.000000 0.000000 -2.495450 1.657954 27.068896 -15.760914 -25.195373 -3.543533 -19.396819 2.839715 6.884914 0.000000 0.000000 0.000000 7.125000 0.000000 0.000000 6.267101 37.209737 1.207106
49.371008 15.977608 17.963539 -176.369696 -43.300766 177.629083 0.000000 0.000000 0.000000 -15.602081 7.869836 -8.833919 2.001199 8.868522 25.384958 1.250015 -4.069783 -20.182093 0.006407 -0.517509 -1.421954 0.000000 0.000000 0.000000 23.483172 4.477951 -9.377991 -3.556754 -11.545931 34.144124 -2.374053 -4.071509 -30.776183 -0.087792 -1.911368 5.260772 2.559317 -0.950168 -1.075967 0.230030 -1.404806 3.020085 -1.256886 -0.651184 3.656611 2.773396 0.052672 -4.921181 0.417337 -0.134629 1.905430 -0.340263 -0.043503 1.416022 0.000000 0.000000 0.000000 4.429203 3.005155 -28.322438 14.868471 -23.962625 3.172354 13.868978 -21.512522 -6.761385 0.000000 0.000000 0.000000 -7.125000 0.000000 0.000000 -10.879971 36.748824 -2.240719 0.000000 0.000000 0.000000 -2.447282 1.667055 26.990991 -15.765426 -25.201573 -3.545478 -19.378910 2.852072 6.891135 0.000000 0.000000 0.000000 7.125000 0.000000 0.000000 6.282937 37.215128 1.209322
